<?xml version="1.0" encoding="iso-8859-1"?>
<!-- Generator: Adobe Illustrator 19.0.0, SVG Export Plug-In . SVG Version: 6.00 Build 0)  -->
<svg version="1.1" id="Capa_1" xmlns="http://www.w3.org/2000/svg" xmlns:xlink="http://www.w3.org/1999/xlink" x="0px" y="0px"
	 viewBox="0 0 512.001 512.001" style="enable-background:new 0 0 512.001 512.001;" xml:space="preserve">
<path style="fill:#02BFE9;" d="M229.943,178.857c-1.107,2.608-1.107,6.874,0,9.481l33.046,77.737c1.109,2.608,2.922,2.608,4.031,0
	l33.045-77.737c1.108-2.607,1.108-6.873,0-9.481l-33.045-77.736c-1.109-2.608-2.922-2.608-4.031,0L229.943,178.857z"/>
<path style="opacity:0.1;fill:#210035;enable-background:new    ;" d="M250.986,188.338c-1.108-2.607-1.108-6.873,0-9.481
	l24.54-57.728l-8.506-20.009c-1.109-2.608-2.922-2.608-4.031,0l-33.046,77.736c-1.107,2.608-1.107,6.874,0,9.481l33.046,77.737
	c1.109,2.608,2.922,2.608,4.031,0l8.506-20.01L250.986,188.338z"/>
<path style="fill:#02BFE9;" d="M229.943,422.825c-1.107,2.607-1.107,6.873,0,9.48l33.046,77.74c1.109,2.607,2.922,2.607,4.031,0
	l33.045-77.74c1.108-2.607,1.108-6.873,0-9.48L267.02,345.09c-1.109-2.608-2.922-2.608-4.031,0L229.943,422.825z"/>
<path style="opacity:0.1;fill:#210035;enable-background:new    ;" d="M300.065,422.825L267.02,345.09
	c-1.109-2.608-2.922-2.608-4.031,0l-8.752,20.59l24.293,57.146c1.108,2.607,1.108,6.873,0,9.48l-24.293,57.149l8.752,20.591
	c1.109,2.607,2.922,2.607,4.031,0l33.045-77.74C301.173,429.698,301.173,425.432,300.065,422.825z"/>
<path style="fill:#02BFE9;" d="M136.124,340.064c2.62,1.076,6.908,1.076,9.53,0l79.211-32.525c2.621-1.076,2.621-2.837,0-3.913
	l-79.211-32.524c-2.622-1.077-6.91-1.077-9.53,0l-79.212,32.524c-2.621,1.076-2.621,2.837,0,3.913L136.124,340.064z"/>
<path style="opacity:0.1;fill:#210035;enable-background:new    ;" d="M224.865,303.625l-21.422-8.796l-57.789,23.728
	c-2.622,1.077-6.91,1.077-9.53,0l-57.79-23.728l-21.422,8.796c-2.621,1.076-2.621,2.837,0,3.913l79.212,32.525
	c2.62,1.076,6.908,1.076,9.53,0l79.211-32.525C227.486,306.462,227.486,304.702,224.865,303.625z"/>
<path style="fill:#02BFE9;" d="M384.353,340.064c2.62,1.076,6.909,1.076,9.53,0l79.213-32.525c2.621-1.076,2.621-2.837,0-3.913
	l-79.213-32.524c-2.621-1.077-6.91-1.077-9.53,0l-79.212,32.524c-2.621,1.076-2.621,2.837,0,3.913L384.353,340.064z"/>
<path style="opacity:0.1;fill:#210035;enable-background:new    ;" d="M305.141,307.539l21.096,8.662l58.116-23.862
	c2.62-1.076,6.909-1.076,9.53,0l58.116,23.862l21.097-8.662c2.621-1.076,2.621-2.837,0-3.913l-79.213-32.524
	c-2.621-1.077-6.91-1.077-9.53,0l-79.212,32.524C302.52,304.702,302.52,306.462,305.141,307.539z"/>
<path style="fill:#A2E8F9;" d="M169.211,251.047c1.094,2.614,4.136,5.62,6.765,6.681l63.665,25.693
	c2.627,1.06,3.885-0.21,2.791-2.824l-26.095-62.456c-1.093-2.613-4.137-5.62-6.763-6.682l-63.667-25.696
	c-2.628-1.062-3.884,0.21-2.791,2.824L169.211,251.047z"/>
<path style="opacity:0.1;fill:#210035;enable-background:new    ;" d="M233.785,259.903l-42.493-17.15
	c-2.628-1.061-5.671-4.067-6.764-6.68l-17.449-41.765l-21.172-8.545c-2.628-1.062-3.884,0.21-2.791,2.824l26.095,62.46
	c1.094,2.614,4.136,5.62,6.765,6.681l63.665,25.693c2.627,1.06,3.885-0.21,2.791-2.824L233.785,259.903z"/>
<path style="fill:#A2E8F9;" d="M313.671,393.022c1.093,2.615,4.135,5.621,6.763,6.682l63.666,25.697
	c2.627,1.061,3.884-0.21,2.791-2.824l-26.097-62.459c-1.093-2.613-4.137-5.62-6.763-6.68l-63.665-25.696
	c-2.628-1.06-3.884,0.212-2.792,2.825L313.671,393.022z"/>
<path style="opacity:0.1;fill:#210035;enable-background:new    ;" d="M386.891,422.577l-26.097-62.459
	c-1.093-2.613-4.137-5.62-6.763-6.68l-63.665-25.696c-2.628-1.06-3.884,0.212-2.792,2.825l8.769,20.985l42.395,17.11
	c2.627,1.061,5.671,4.066,6.764,6.68l17.328,41.474l21.27,8.585C386.727,426.462,387.984,425.191,386.891,422.577z"/>
<path style="fill:#A2E8F9;" d="M209.574,399.704c2.626-1.061,5.67-4.066,6.763-6.682l26.095-62.455
	c1.094-2.613-0.164-3.886-2.791-2.825l-63.665,25.696c-2.629,1.06-5.671,4.066-6.765,6.68l-26.095,62.459
	c-1.093,2.614,0.163,3.886,2.791,2.824L209.574,399.704z"/>
<path style="opacity:0.1;fill:#210035;enable-background:new    ;" d="M239.641,327.742l-20.634,8.329l-17.503,41.891
	c-1.093,2.614-4.136,5.62-6.764,6.682l-43.032,17.369l-8.592,20.565c-1.093,2.614,0.163,3.886,2.791,2.824l63.667-25.697
	c2.626-1.061,5.67-4.066,6.763-6.682l26.095-62.455C243.526,327.954,242.268,326.681,239.641,327.742z"/>
<path style="fill:#A2E8F9;" d="M354.031,257.728c2.627-1.06,5.67-4.066,6.763-6.681l26.097-62.46
	c1.093-2.614-0.164-3.886-2.791-2.824l-63.666,25.696c-2.628,1.061-5.67,4.068-6.763,6.682l-26.097,62.456
	c-1.092,2.614,0.164,3.885,2.792,2.824L354.031,257.728z"/>
<path style="opacity:0.1;fill:#210035;enable-background:new    ;" d="M328.256,232.527c1.093-2.613,4.135-5.62,6.764-6.681
	l43.668-17.626l8.203-19.633c1.093-2.614-0.164-3.886-2.791-2.824l-63.666,25.696c-2.628,1.061-5.67,4.068-6.763,6.682
	l-26.097,62.456c-1.092,2.614,0.164,3.885,2.792,2.824l19.996-8.069L328.256,232.527z"/>
<ellipse style="fill:#02BFE9;" cx="265" cy="303.89" rx="55.637" ry="54.683"/>
<path style="opacity:0.1;fill:#210035;enable-background:new    ;" d="M230.242,303.893c0-26.692,19.463-48.904,45.199-53.709
	c-3.383-0.631-6.869-0.975-10.438-0.975c-30.73,0-55.638,24.482-55.638,54.684c0,30.201,24.908,54.683,55.638,54.683
	c3.568,0,7.055-0.344,10.438-0.975C249.705,352.797,230.242,330.586,230.242,303.893z"/>
</svg>
