<?xml version="1.0" encoding="iso-8859-1"?>
<!-- Generator: Adobe Illustrator 19.0.0, SVG Export Plug-In . SVG Version: 6.00 Build 0)  -->
<svg version="1.1" id="Capa_1" xmlns="http://www.w3.org/2000/svg" xmlns:xlink="http://www.w3.org/1999/xlink" x="0px" y="0px"
	 viewBox="0 0 512.001 512.001" style="enable-background:new 0 0 512.001 512.001;" xml:space="preserve">
	 <ellipse style="fill:#A2E8F9;" cx="265" cy="303.89" rx="22.838" ry="22.447"/>
 	<path style="fill:#A2E8F9;" d="M151.946,1.944c1.146-2.592,3.018-2.592,4.161,0l14.019,31.75c1.145,2.593,4.386,4.462,7.202,4.156
 		l34.56-3.753c2.816-0.306,3.751,1.313,2.075,3.598l-20.527,28.003c-1.676,2.284-1.676,6.022,0,8.308l20.527,28.003
 		c1.676,2.284,0.741,3.903-2.075,3.598l-34.56-3.753c-2.816-0.306-6.058,1.565-7.202,4.156l-14.019,31.75
 		c-1.145,2.591-3.017,2.591-4.161,0l-14.02-31.75c-1.144-2.591-4.387-4.462-7.202-4.156l-34.559,3.753
 		c-2.816,0.306-3.752-1.313-2.076-3.598l20.527-28.003c1.675-2.285,1.675-6.023,0-8.308L94.09,37.695
 		c-1.676-2.284-0.74-3.903,2.076-3.598l34.559,3.753c2.815,0.306,6.058-1.564,7.202-4.156L151.946,1.944z"/>
 </g>
 <g style="opacity:0.1;">
 	<path style="fill:#1B003F;" d="M115.719,102.008l20.528-28.003c1.675-2.285,1.675-6.023,0-8.308l-20.528-28.003
 		c-0.415-0.566-0.67-1.092-0.775-1.558l-18.777-2.04c-2.816-0.306-3.752,1.313-2.076,3.598l20.527,28.003
 		c1.675,2.284,1.675,6.022,0,8.308L94.09,102.008c-1.676,2.284-0.74,3.903,2.076,3.598l18.777-2.039
 		C115.049,103.1,115.304,102.575,115.719,102.008z"/>
 </g>
</svg>
